PathFileType	4	(X/Y/Z)	Patient4_TMGait_0pt3_02_right_10.trc.trc
DataRate	CameraRate	NumFrames	NumMarkers	Units	OrigDataRate	OrigDataStartFrame	OrigNumFrames
51.282051282051	51.282051282051	4	33	mm	51.282051282051	36	       141
Frame#	Time	Sacral			L.Shoulder			Chest			R.Shoulder			Neck			R.ASIS			L.ASIS			R.Thigh.Superior			R.Thigh.Lateral			R.Thigh.Inferior			R.Patella			L.Thigh.Superior			L.Thigh.Lateral			L.Thigh.Inferior			L.Patella			L.Shank.Superior			L.Shank.Lateral			L.Shank.Inferior			R.Shank.Superior			R.Shank.Lateral			R.Shank.Inferior			R.Heel			R.Midfoot.Superior			R.Midfoot.Lateral			R.Toe			L.Heel			L.Midfoot.Lateral			L.Midfoot.Superior			L.Toe			L.Elbow			L.Wrist			R.Elbow			R.Wrist			
		X1	Y1	Z1	X2	Y2	Z2	X3	Y3	Z3	X4	Y4	Z4	X5	Y5	Z5	X6	Y6	Z6	X7	Y7	Z7	X8	Y8	Z8	X9	Y9	Z9	X10	Y10	Z10	X11	Y11	Z11	X12	Y12	Z12	X13	Y13	Z13	X14	Y14	Z14	X15	Y15	Z15	X16	Y16	Z16	X17	Y17	Z17	X18	Y18	Z18	X19	Y19	Z19	X20	Y20	Z20	X21	Y21	Z21	X22	Y22	Z22	X23	Y23	Z23	X24	Y24	Z24	X25	Y25	Z25	X26	Y26	Z26	X27	Y27	Z27	X28	Y28	Z28	X29	Y29	Z29	X30	Y30	Z30	X31	Y31	Z31	X32	Y32	Z32	X33	Y33	Z33	

36	19.172500000000	770.980079538191	1012.068760695353	497.479363123535	1017.861043583574	1440.219683359720	397.681406156321	1064.163259766397	1352.081527189302	575.127423241473	937.916488734505	1421.464749844017	721.615111844611	959.460654393243	1492.026596294958	549.510399636619	969.957513949922	936.292980859775	659.768346819773	1012.281809724319	960.059253334868	390.299023401663	1031.576123847900	746.834138948056	625.768879490786	955.113018851940	630.235581871676	672.700513234307	1044.995589806414	587.667254472326	599.152084118654	1053.657717461562	500.053416288901	604.680649248549	1012.791661970327	728.130742164187	413.510262346865	910.596869691899	629.119912591952	336.382721049112	967.799027723296	535.213058652635	407.436363164851	951.051370221763	459.613113795922	409.299356522330	895.112821011832	403.564674565265	394.072550398498	773.089769241974	334.398314172964	328.080089790512	773.767211929780	207.851979686769	391.587383658349	1029.173218959360	408.985298153065	606.914053852210	959.059279090439	300.998171741215	663.638689746908	1009.021579041919	209.313673839284	600.562224206471	878.901904426663	44.036395243808	564.294319009749	1050.757904602775	97.823964967080	604.560821297863	960.854473100844	37.854604534125	640.418790153627	1169.164398579278	44.168067940376	634.279508257121	596.452801564733	96.254153773301	408.046750179579	674.581203871832	71.113546700161	337.152442076352	768.532075575887	110.015819381840	371.820819737013	878.963638336496	32.069095665904	356.204276204909	1141.690781696357	1136.031793671577	245.033352057776	1396.670813354433	1127.781519075259	291.135790752214	799.071172448862	1088.288037799852	779.771459065123	835.947396565478	829.991727028330	800.045228904234	
37	19.192000000000	770.990965808210	1012.940463236198	502.860188854445	1016.055499401329	1441.492142645632	400.587543067177	1064.154146807003	1353.501891297315	577.701110115410	939.049141508694	1422.654375043425	725.166264846107	958.912957647638	1493.345247082495	552.734375153263	970.778800754789	937.411311970448	663.961212724540	1011.672244739700	961.071598934354	394.383291950748	1030.001068991865	746.100449514853	630.505599235798	951.615533944617	630.469641893014	676.484474397140	1041.173209394028	587.145027583241	603.044799534281	1048.584043455619	499.697036641665	608.087215547473	1017.582854586093	730.794111634363	418.984122809425	919.568757859835	628.993418608122	341.550757324148	979.741050983841	536.186902945738	412.837568168318	964.013909166266	458.382326664959	413.392457341014	904.505448685363	403.568985344709	398.062897271936	779.984874257051	341.354531258377	330.584997839453	774.208993857594	214.673547763058	392.316681216637	1023.956793033498	408.847225880800	609.766609544732	953.170439203938	300.717575338619	665.488107363559	1003.397560102655	209.296508619408	602.098909443936	873.311315077036	43.754061984589	564.546531756109	1045.099056053376	97.978498402370	605.030442855352	955.304239632986	37.671461434825	640.646582120043	1163.602652817800	44.409429256313	634.452445120673	592.242320889041	113.195083779054	405.795844956511	669.326360889149	84.060936715031	335.521949960006	764.646965674783	116.817162000135	371.421174504016	869.583344172773	32.530597299915	356.306308987646	1136.957211660388	1134.432535116809	249.954350330110	1391.927749657338	1117.367430922690	296.084803801135	808.010053252373	1086.712042083771	789.015014329884	854.550974769593	830.265568518019	812.009677734527	
38	19.211500000000	770.762533606915	1013.417482675382	507.941878952873	1013.731875847069	1442.528422657995	403.068192066919	1063.626283630737	1354.798110562966	579.870989385790	939.570519291537	1423.644421490539	728.289550801975	957.831256456680	1494.435591579919	555.546433877285	971.338253927871	938.490820877418	668.067496714799	1010.929631741130	961.760901610671	398.339086928296	1028.328239421003	745.409662191364	635.174101453338	948.201833570117	630.622144192670	680.239154122947	1037.554442650554	586.614510498687	607.015601729918	1043.813778617273	499.257366219974	611.648968130635	1022.704595921942	733.438466882962	424.688406704761	929.531523641565	628.696447060195	346.672913300847	992.682158628098	537.245661322071	418.416422607256	977.957560922241	457.165261030447	417.567949875723	914.749399794813	403.597413434284	402.013920119120	787.843462806516	349.298590054218	333.040433748441	774.687263355182	222.928585005000	392.926580048155	1018.917388034730	408.638419805154	612.725953657940	947.291750314988	300.473827944942	667.362862381388	997.768130827421	209.269306415588	603.725878704406	867.695328203799	43.498193424078	564.791555752144	1039.402867202353	98.152379381929	605.539421351318	949.706277561485	37.497953093532	640.870228694495	1157.972548961303	44.726972862443	634.651964162162	588.040905164246	133.135362728990	403.525629452954	663.624018685925	99.796395490482	333.696500775482	760.142620290029	125.555190339300	370.809537718129	858.628496691039	34.320049359714	355.772146578555	1131.201145872939	1132.465122760553	254.343997800055	1385.663331710933	1104.925128965714	300.594067288273	817.327339058080	1084.984017631349	798.082844918007	873.498652213584	830.744021986459	823.836112396976	
39	19.231000000000	770.355617111274	1013.462546780647	512.710025114406	1010.946289369108	1443.287291815685	405.141721449993	1062.587329629648	1355.947212685951	581.676783188299	939.443457755501	1424.417796670644	730.986612293087	956.212373987023	1495.261932426845	557.950849591746	971.691128377276	939.508170265973	672.093398749396	1010.127485114443	962.104202634467	402.174924898134	1026.733978993372	744.801266445027	639.750395618450	945.116621461597	630.671338688050	683.945491778920	1034.396706695646	586.078702835020	611.043372010301	1039.665811658420	498.692813207613	615.352871702399	1027.969876903028	735.967011382389	430.441483530411	940.063197783715	628.324603093542	351.588386125771	1006.124878987535	538.399477733411	423.930036029807	992.348789104662	456.054134711583	421.614307442476	925.421318860940	403.739494488075	405.694439847277	796.259274092176	358.174230921166	335.387480670783	775.085454702734	232.543425564662	393.329642177492	1014.295889371513	408.316658674976	615.752899855526	941.614907376405	300.269060385139	669.235280295673	992.222708859957	209.199481395005	605.392021340019	862.012137971450	43.291873469547	565.015864146522	1033.650681159531	98.314583438769	606.047040952358	944.021547468467	37.346096191182	641.078987124440	1152.252405279936	45.051766657335	634.856620513456	583.938209899936	155.658262773379	401.400788006351	657.536532125766	118.075503146193	331.736629096397	755.032972340049	136.185801196607	369.893020942763	846.262720262273	37.744520237916	354.362519932658	1124.474847218049	1130.090309235957	258.242567371904	1377.662485448690	1090.384265427314	304.670337623763	827.004501251694	1083.121003107312	806.820254949949	892.758861486108	831.457431573558	835.413029845732	
